<svg width="221" height="199" viewBox="0 0 221 199" fill="none" xmlns="http://www.w3.org/2000/svg">
<g opacity="0.8">
<path fill-rule="evenodd" clip-rule="evenodd" d="M215 159.669V53.1018L85.6943 53.1018V159.669L215 159.669ZM217 165.669C219.209 165.669 221 163.878 221 161.669V51.1018C221 48.8927 219.209 47.1018 217 47.1018L83.6943 47.1018C81.4851 47.1018 79.6943 48.8927 79.6943 51.1018V161.669C79.6943 163.878 81.4851 165.669 83.6943 165.669L217 165.669Z" fill="#40E2B0"/>
<path fill-rule="evenodd" clip-rule="evenodd" d="M101.306 112.567L101.306 6.00001L-28 6.00001V112.567L101.306 112.567ZM103.306 118.567C105.515 118.567 107.306 116.776 107.306 114.567L107.306 4.00001C107.306 1.79087 105.515 7.62939e-06 103.306 7.62939e-06L-30 7.62939e-06C-32.2092 7.62939e-06 -34 1.79087 -34 4.00001V114.567C-34 116.776 -32.2092 118.567 -30 118.567L103.306 118.567Z" fill="#40E2B0"/>
<path fill-rule="evenodd" clip-rule="evenodd" d="M180.516 190.153V87.5859L55.2102 87.5859V190.153L180.516 190.153ZM184.516 198.153C186.725 198.153 188.516 196.362 188.516 194.153V83.5859C188.516 81.3768 186.725 79.5859 184.516 79.5859L51.2102 79.5859C49.0011 79.5859 47.2102 81.3768 47.2102 83.5859V194.153C47.2102 196.362 49.0011 198.153 51.2102 198.153L184.516 198.153Z" fill="#40E2B0"/>
</g>
</svg>
