<svg width="27" height="24" viewBox="0 0 27 24" fill="none" xmlns="http://www.w3.org/2000/svg">
<path d="M1.26787 0C0.922664 0 0.642822 0.261185 0.642822 0.583374V22.9683C0.642822 23.2543 0.761516 23.5274 0.970575 23.7225C1.16162 23.9008 1.4132 24 1.67452 24H25.7321C26.0773 24 26.3571 23.7388 26.3571 23.4166C26.3571 23.0944 26.0773 22.8333 25.7321 22.8333H3.89291C2.78834 22.8333 1.89291 21.9378 1.89291 20.8333V0.583374C1.89291 0.261185 1.61307 0 1.26787 0Z" fill="#C11574"/>
<path fill-rule="evenodd" clip-rule="evenodd" d="M6.26818 15.1478C5.13711 15.1357 4.14728 15.855 3.88254 16.8814C3.61781 17.9078 4.14848 18.9687 5.16155 19.4383C6.17461 19.908 7.40099 19.6616 8.11729 18.8445C8.8336 18.0274 8.84958 16.8567 8.15581 16.0229L11.081 12.0209C11.3349 12.1013 11.6005 12.1446 11.8686 12.1493C12.5535 12.1552 13.2085 11.8877 13.6687 11.4142L16.2689 13.141C16.2289 13.3096 16.2079 13.4817 16.2064 13.6544C16.2064 14.8916 17.281 15.8945 18.6065 15.8945C19.9321 15.8945 21.0067 14.8916 21.0067 13.6544C21.0048 13.1475 20.8148 12.6569 20.4692 12.2659L23.2569 8.28732C24.3919 8.62131 25.6165 8.11978 26.1216 7.11408C26.6268 6.10837 26.2565 4.90899 25.2555 4.30835C24.2544 3.70771 22.9316 3.89125 22.161 4.73771C21.3905 5.58417 21.41 6.83221 22.2068 7.65727L19.4316 11.5775C19.1559 11.4799 18.8639 11.4286 18.569 11.4259C17.9137 11.4255 17.2864 11.6741 16.8314 12.1143L14.2187 10.4108C14.2317 10.2594 14.2317 10.1072 14.2187 9.95577C14.2696 8.94348 13.586 8.02538 12.5517 7.71693C11.5175 7.40848 10.3901 7.78651 9.80268 8.63877C9.21521 9.49104 9.31394 10.6053 10.0434 11.3559L7.15574 15.3111C6.8741 15.2033 6.5726 15.1478 6.26818 15.1478ZM23.9569 5.1021C24.5921 5.1021 25.107 5.58268 25.107 6.17551C25.107 6.76834 24.5921 7.24892 23.9569 7.24892C23.3218 7.24892 22.8069 6.76834 22.8069 6.17551C22.8069 5.58268 23.3218 5.1021 23.9569 5.1021ZM19.7191 13.6544C19.7191 13.0615 19.2042 12.581 18.569 12.581C17.9339 12.581 17.4189 13.0615 17.4189 13.6544C17.4189 14.2472 17.9339 14.7278 18.569 14.7278C19.2042 14.7278 19.7191 14.2472 19.7191 13.6544ZM11.8685 8.83568C12.5037 8.83568 13.0186 9.31626 13.0186 9.90908C13.0186 10.5019 12.5037 10.9825 11.8685 10.9825C11.2333 10.9825 10.7184 10.5019 10.7184 9.90908C10.7184 9.31626 11.2333 8.83568 11.8685 8.83568ZM5.20347 17.7931C5.37991 18.1971 5.80077 18.4612 6.26818 18.4613C6.89372 18.4615 7.40466 17.995 7.41826 17.4113C7.42842 16.9751 7.15475 16.5766 6.7259 16.4031C6.29705 16.2296 5.79834 16.3155 5.46421 16.6206C5.13009 16.9257 5.02702 17.3892 5.20347 17.7931Z" fill="#C11574"/>
</svg>
